<svg viewBox="0 0 14 14" fill="none" xmlns="http://www.w3.org/2000/svg">
<path d="M4.6665 4.66667C3.35533 4.66667 2.33317 5.68883 2.33317 7C2.33317 8.31116 3.35533 9.33333 4.6665 9.33333H5.83317C6.15535 9.33333 6.4165 9.59449 6.4165 9.91667C6.4165 10.2388 6.15535 10.5 5.83317 10.5H4.6665C2.71101 10.5 1.1665 8.95551 1.1665 7C1.1665 5.0445 2.71101 3.5 4.6665 3.5H5.83317C6.15535 3.5 6.4165 3.76117 6.4165 4.08333C6.4165 4.4055 6.15535 4.66667 5.83317 4.66667H4.6665ZM7.58317 4.08333C7.58317 3.76117 7.84433 3.5 8.1665 3.5H9.33317C11.2887 3.5 12.8332 5.0445 12.8332 7C12.8332 8.95551 11.2887 10.5 9.33317 10.5H8.1665C7.84433 10.5 7.58317 10.2388 7.58317 9.91667C7.58317 9.59449 7.84433 9.33333 8.1665 9.33333H9.33317C10.6443 9.33333 11.6665 8.31116 11.6665 7C11.6665 5.68883 10.6443 4.66667 9.33317 4.66667H8.1665C7.84433 4.66667 7.58317 4.4055 7.58317 4.08333ZM4.08317 7C4.08317 6.67782 4.34434 6.41667 4.6665 6.41667H9.33317C9.65535 6.41667 9.9165 6.67782 9.9165 7C9.9165 7.32217 9.65535 7.58333 9.33317 7.58333H4.6665C4.34434 7.58333 4.08317 7.32217 4.08317 7Z" fill="#206AE6"/>
</svg>
