<svg width="24" height="25" viewBox="0 0 24 25" fill="none" xmlns="http://www.w3.org/2000/svg">
<path d="M9.36077 3.79293C9.6659 4.09805 9.74089 4.56447 9.54678 4.94986C9.04068 5.95472 8.75521 7.09037 8.75521 8.29559C8.75521 12.4097 12.0903 15.7448 16.2044 15.7448C17.4097 15.7448 18.5453 15.4593 19.5502 14.9532C19.9356 14.7591 20.402 14.8341 20.7071 15.1392C21.0122 15.4444 21.0872 15.9108 20.8931 16.2962C19.3396 19.3806 16.1428 21.5 12.4492 21.5C7.23056 21.5 3 17.2695 3 12.0508C3 8.35721 5.11941 5.16042 8.20384 3.60692C8.58923 3.41281 9.05565 3.4878 9.36077 3.79293Z" fill="#0D0D0D"/>
</svg>
