<svg width="24" height="25" viewBox="0 0 24 25" fill="none" xmlns="http://www.w3.org/2000/svg">
<path d="M12 2.5C12.5523 2.5 13 2.94772 13 3.5V4.5C13 5.05228 12.5523 5.5 12 5.5C11.4477 5.5 11 5.05228 11 4.5V3.5C11 2.94772 11.4477 2.5 12 2.5ZM19.0711 5.42893C19.4616 5.81945 19.4616 6.45261 19.0711 6.84314L18.364 7.55025C17.9735 7.94077 17.3403 7.94077 16.9498 7.55025C16.5593 7.15972 16.5593 6.52656 16.9498 6.13603L17.6569 5.42893C18.0474 5.0384 18.6806 5.0384 19.0711 5.42893ZM4.92893 5.42893C5.31945 5.0384 5.95262 5.0384 6.34314 5.42893L7.05025 6.13603C7.44077 6.52656 7.44077 7.15972 7.05025 7.55025C6.65972 7.94077 6.02656 7.94077 5.63603 7.55025L4.92893 6.84314C4.5384 6.45262 4.5384 5.81945 4.92893 5.42893ZM12 8.5C9.79086 8.5 8 10.2909 8 12.5C8 14.7091 9.79086 16.5 12 16.5C14.2091 16.5 16 14.7091 16 12.5C16 10.2909 14.2091 8.5 12 8.5ZM6 12.5C6 9.18629 8.68629 6.5 12 6.5C15.3137 6.5 18 9.18629 18 12.5C18 15.8137 15.3137 18.5 12 18.5C8.68629 18.5 6 15.8137 6 12.5ZM2 12.5C2 11.9477 2.44772 11.5 3 11.5H4C4.55228 11.5 5 11.9477 5 12.5C5 13.0523 4.55228 13.5 4 13.5H3C2.44772 13.5 2 13.0523 2 12.5ZM19 12.5C19 11.9477 19.4477 11.5 20 11.5H21C21.5523 11.5 22 11.9477 22 12.5C22 13.0523 21.5523 13.5 21 13.5H20C19.4477 13.5 19 13.0523 19 12.5ZM5.63603 17.4497C6.02656 17.0592 6.65972 17.0592 7.05025 17.4497C7.44077 17.8403 7.44077 18.4734 7.05025 18.864L6.34314 19.5711C5.95262 19.9616 5.31945 19.9616 4.92893 19.5711C4.5384 19.1805 4.5384 18.5474 4.92893 18.1568L5.63603 17.4497ZM16.9498 18.864C16.5593 18.4734 16.5593 17.8403 16.9498 17.4497C17.3403 17.0592 17.9735 17.0592 18.364 17.4497L19.0711 18.1568C19.4616 18.5474 19.4616 19.1805 19.0711 19.5711C18.6806 19.9616 18.0474 19.9616 17.6569 19.5711L16.9498 18.864ZM12 19.5C12.5523 19.5 13 19.9477 13 20.5V21.5C13 22.0523 12.5523 22.5 12 22.5C11.4477 22.5 11 22.0523 11 21.5V20.5C11 19.9477 11.4477 19.5 12 19.5Z" fill="#0D0D0D"/>
</svg>
